<?xml version="1.0" standalone="no"?>
<!DOCTYPE svg PUBLIC "-//W3C//DTD SVG 20010904//EN"
 "http://www.w3.org/TR/2001/REC-SVG-20010904/DTD/svg10.dtd">
<svg version="1.0" xmlns="http://www.w3.org/2000/svg"
 width="826.000000pt" height="423.000000pt" viewBox="0 0 826.000000 423.000000"
 preserveAspectRatio="xMidYMid meet">

<g transform="translate(0.000000,423.000000) scale(0.100000,-0.100000)"
fill="#333" stroke="none">
<path d="M0 2115 l0 -2115 4130 0 4130 0 0 2115 0 2115 -4130 0 -4130 0 0
-2115z m955 1796 c103 -27 263 -106 340 -168 51 -41 149 -157 205 -242 15 -22
16 -21 84 79 114 169 250 262 439 301 161 33 342 18 449 -37 l33 -17 -55 -19
c-30 -10 -117 -37 -193 -60 l-138 -41 28 -23 c15 -12 26 -24 23 -27 -3 -3 -50
-27 -105 -55 -124 -62 -222 -131 -309 -216 -63 -62 -87 -106 -50 -92 10 4 58
14 108 22 128 23 294 14 401 -20 205 -65 439 -265 535 -456 33 -66 54 -129 46
-137 -8 -9 -186 100 -283 173 -66 50 -83 59 -77 41 10 -33 23 -90 24 -105 0
-9 -15 -4 -42 13 -76 48 -246 125 -351 160 -97 33 -276 70 -299 63 -6 -2 18
-21 52 -42 128 -79 257 -223 320 -357 51 -110 70 -206 70 -353 0 -117 -13
-253 -26 -265 -2 -3 -11 4 -19 15 -23 28 -171 331 -188 383 l-14 44 -17 -35
c-10 -20 -25 -43 -35 -52 -17 -15 -19 -13 -30 26 -23 77 -118 207 -242 331
-65 64 -123 117 -128 117 -21 0 -81 -200 -81 -272 0 -26 -4 -38 -14 -38 -28 0
-67 -245 -73 -465 -14 -499 144 -1072 409 -1478 33 -51 63 -95 67 -99 4 -4 63
-17 131 -29 222 -37 488 -129 565 -193 23 -20 45 -21 -280 16 -143 16 -267 21
-600 25 -429 5 -581 -3 -935 -48 -127 -16 -137 -10 -60 33 143 81 388 155 593
179 56 7 103 14 105 15 2 1 -14 37 -36 80 -143 285 -219 857 -181 1359 19 251
60 456 149 747 28 89 48 163 46 165 -7 7 -135 -74 -189 -120 -64 -53 -164
-178 -190 -236 l-19 -44 -19 24 c-10 13 -21 37 -25 53 -6 27 -8 25 -53 -55
-43 -75 -163 -277 -201 -336 -8 -13 -18 -23 -21 -23 -10 0 -29 119 -29 181 0
208 104 457 246 589 61 57 163 129 232 165 29 15 51 30 48 32 -17 18 -395 -62
-535 -112 -38 -14 -71 -25 -75 -25 -10 0 -7 70 5 91 9 17 4 16 -33 -7 -23 -15
-106 -58 -183 -96 -174 -85 -183 -73 -70 87 119 168 310 298 517 351 99 26
281 15 427 -26 62 -17 116 -28 119 -25 15 14 -213 214 -370 325 -26 18 -45 37
-42 41 3 5 23 12 45 15 l40 7 -92 48 c-95 51 -126 69 -219 128 l-55 35 30 8
c57 13 266 1 350 -21z m4600 -723 c0 -227 4 -432 8 -455 l9 -43 -51 0 c-71 0
-99 15 -113 63 l-12 39 -20 -27 c-11 -15 -42 -38 -70 -51 -101 -47 -224 -22
-309 63 -63 62 -90 134 -90 233 -1 127 61 232 168 288 96 50 249 29 300 -40
16 -22 17 -13 11 160 l-6 182 87 0 88 0 0 -412z m985 -43 l0 -455 -85 0 -85 0
0 455 0 455 85 0 85 0 0 -455z m-3048 140 c48 -148 95 -297 104 -329 l16 -59
33 104 c17 57 65 206 105 332 l74 227 128 0 128 0 0 -435 0 -435 -80 0 -80 0
-2 312 -3 312 -112 -309 -111 -310 -82 0 -82 0 -70 195 c-38 107 -87 247 -109
310 l-39 115 0 -312 0 -313 -85 0 -85 0 0 435 0 436 132 -3 132 -3 88 -270z
m2588 29 c96 -30 169 -139 178 -266 l5 -68 -227 0 -226 0 0 -23 c0 -12 10 -43
23 -67 30 -60 74 -82 151 -77 51 3 63 8 87 35 27 31 32 32 105 32 73 0 75 -1
69 -22 -11 -38 -59 -101 -95 -126 -88 -59 -240 -68 -335 -19 -64 32 -118 89
-147 152 -34 75 -32 209 3 285 14 31 40 72 58 92 74 85 217 114 351 72z
m-1461 0 c74 -20 129 -59 168 -118 41 -61 53 -103 53 -193 0 -137 -54 -229
-168 -285 -60 -30 -75 -33 -157 -33 -76 0 -99 4 -145 26 -79 37 -115 72 -151
145 -27 55 -32 77 -33 142 -1 108 23 172 89 238 41 41 66 57 116 73 78 24 154
26 228 5z m-1005 -859 c89 -19 168 -67 217 -131 34 -44 69 -119 69 -145 0 -5
-35 -9 -77 -8 l-78 0 -30 47 c-73 114 -259 132 -365 36 -60 -55 -84 -121 -83
-234 0 -148 40 -228 136 -277 40 -20 67 -26 117 -26 105 0 178 42 215 124 l18
39 79 0 c59 0 78 -3 78 -14 0 -7 -16 -45 -35 -84 -41 -81 -99 -138 -184 -179
-51 -25 -66 -28 -171 -28 -97 0 -124 4 -173 24 -80 32 -168 119 -206 203 -127
280 8 596 279 654 75 17 113 16 194 -1z m4276 -140 l0 -95 70 0 70 0 0 -60 0
-60 -70 0 -70 0 0 -175 0 -175 25 -16 c19 -12 37 -15 69 -11 l44 6 4 -62 c2
-34 2 -64 1 -66 -2 -3 -49 -5 -106 -5 -92 -1 -105 1 -135 22 -61 44 -67 66
-70 285 l-4 197 -54 0 -54 0 0 60 0 60 55 0 55 0 0 95 0 95 85 0 85 0 0 -95z
m-3415 -109 c73 -33 110 -69 144 -138 28 -55 31 -71 31 -152 0 -79 -4 -99 -28
-151 -53 -111 -142 -166 -282 -173 -107 -5 -182 20 -251 85 -69 65 -94 127
-94 238 0 102 22 165 78 223 92 96 274 127 402 68z m1516 3 c48 -24 95 -80
108 -126 6 -21 11 -136 11 -260 l0 -223 -85 0 -85 0 0 215 0 215 -28 31 c-24
27 -37 33 -83 36 -45 4 -60 1 -89 -19 -60 -40 -64 -61 -68 -280 l-4 -198 -79
0 -79 0 0 218 c0 121 -3 260 -6 310 l-7 92 87 0 86 0 0 -46 0 -46 26 32 c65
76 198 99 295 49z m641 21 c63 -18 129 -70 162 -129 25 -45 30 -68 34 -138 l5
-83 -226 0 -225 0 9 -42 c13 -57 42 -93 89 -112 73 -29 152 -13 185 38 16 24
23 26 91 26 41 0 74 -2 74 -4 0 -17 -36 -82 -62 -111 -50 -58 -100 -78 -204
-83 -123 -6 -179 13 -249 82 -73 71 -98 141 -93 257 3 68 10 97 32 142 33 68
98 128 163 150 55 18 161 22 215 7z m739 -6 c68 -20 141 -89 159 -151 20 -65
12 -73 -69 -73 l-71 0 -20 40 c-47 92 -186 98 -251 10 -30 -40 -43 -127 -29
-193 20 -97 83 -146 172 -134 51 7 85 30 105 72 l17 35 78 0 c89 0 89 -1 54
-75 -49 -103 -155 -167 -279 -168 -138 -1 -231 53 -287 166 -76 154 -35 350
89 433 22 14 57 32 78 40 53 18 188 17 254 -2z m-2143 -9 c47 -20 78 -50 105
-100 20 -37 22 -57 25 -277 l3 -238 -87 0 -86 0 5 178 c6 205 0 254 -36 290
-36 35 -118 42 -164 13 -64 -40 -68 -54 -71 -278 l-3 -203 -85 0 -84 0 0 294
c0 162 -3 301 -6 310 -5 14 6 16 86 16 l93 0 -7 -56 c-4 -36 -3 -53 4 -49 5 3
10 12 10 20 0 17 55 64 95 81 42 18 157 17 203 -1z m-847 -815 c30 -17 52 -68
45 -106 -9 -44 -57 -84 -102 -84 -49 0 -94 43 -101 97 -5 37 -2 45 25 73 24
24 39 30 72 30 23 0 50 -5 61 -10z m2124 -13 c18 -15 28 -36 32 -64 5 -39 2
-46 -30 -78 -46 -46 -92 -48 -139 -6 -28 25 -33 36 -33 76 0 39 5 51 28 71 38
32 105 33 142 1z m-3003 -320 c54 -166 100 -315 104 -330 6 -24 14 -7 50 110
24 76 72 224 107 328 l64 190 126 3 127 3 0 -436 0 -435 -80 0 -80 0 0 312 c0
171 -2 309 -5 307 -2 -3 -54 -142 -114 -309 l-109 -305 -79 -3 -79 -3 -38 108
c-22 59 -72 200 -112 313 l-73 205 -1 -312 0 -313 -85 0 -85 0 0 435 0 435
133 0 132 0 97 -303z m1473 53 c22 -9 53 -30 69 -46 54 -54 60 -80 66 -319 3
-121 10 -228 14 -237 7 -16 1 -18 -57 -18 -76 0 -105 17 -116 70 l-7 34 -21
-36 c-27 -46 -70 -69 -142 -75 -72 -7 -132 10 -177 49 -48 42 -66 80 -66 142
-1 62 19 104 67 144 50 41 94 53 223 59 l112 6 0 29 c0 47 -26 85 -66 98 -56
19 -114 7 -146 -29 -26 -29 -32 -31 -98 -31 -78 0 -80 2 -51 66 30 66 97 106
196 117 55 7 159 -5 200 -23z m-565 -306 l0 -314 -85 0 -85 0 0 318 0 317 85
-3 85 -3 0 -315z m1300 292 c22 -14 48 -43 59 -63 11 -21 20 -33 21 -26 0 23
64 86 105 104 52 24 138 24 190 0 51 -23 101 -79 114 -128 6 -21 11 -138 11
-265 l0 -228 -84 0 -85 0 -3 226 -3 226 -33 29 c-54 48 -125 36 -169 -30 -22
-33 -23 -42 -23 -242 l0 -209 -85 0 -85 0 0 199 c0 206 -5 238 -42 279 -26 27
-101 31 -137 6 -44 -31 -51 -68 -51 -284 l0 -200 -85 0 -85 0 0 315 0 315 84
0 83 0 -4 -52 -5 -53 20 30 c38 61 98 86 190 81 47 -3 73 -10 102 -30z m806
-291 l-1 -315 -82 0 -83 0 0 284 c0 156 -3 298 -6 315 l-6 31 89 0 89 0 0
-315z"/>
<path d="M5151 3168 c-54 -36 -76 -82 -76 -158 0 -111 60 -180 158 -180 90 0
145 57 155 160 6 65 -12 120 -53 160 -30 29 -43 34 -92 38 -48 3 -64 0 -92
-20z"/>
<path d="M5891 3192 c-36 -18 -65 -52 -76 -89 l-6 -23 146 0 146 0 -6 23 c-17
59 -80 107 -140 107 -16 0 -45 -8 -64 -18z"/>
<path d="M4431 3172 c-42 -23 -70 -72 -77 -138 -12 -103 43 -199 121 -213 124
-22 198 48 198 184 0 76 -14 114 -57 155 -37 33 -135 40 -185 12z"/>
<path d="M4240 2082 c-22 -11 -44 -36 -58 -63 -20 -37 -23 -55 -19 -115 6
-114 53 -173 144 -181 66 -6 129 27 157 82 28 54 28 168 0 216 -44 75 -145
102 -224 61z"/>
<path d="M6453 2090 c-32 -19 -63 -66 -63 -95 0 -13 20 -15 139 -15 77 0 142
4 145 8 10 16 -37 93 -65 107 -40 21 -117 19 -156 -5z"/>
<path d="M4780 789 c-72 -20 -103 -98 -61 -150 16 -20 28 -24 78 -24 90 0 128
37 140 137 l6 48 -64 -1 c-35 0 -80 -5 -99 -10z"/>
</g>
</svg>
